/* XPM */
static char *s82aAEO70oBD7TF_png[] = {
/* columns rows colors chars-per-pixel */
"100 100 27 1 ",
"  c #16130F",
". c #2D2B25",
"X c #413C34",
"o c #694F37",
"O c #504A43",
"+ c #5E5852",
"@ c #7B634D",
"# c #6C6763",
"$ c #7B7672",
"% c #947454",
"& c #9F846E",
"* c #C09465",
"= c #898683",
"- c #99948F",
"; c #A4A09C",
": c #ADACA9",
"> c #B5B5B3",
", c #D6A581",
"< c #FDB79E",
"1 c #C0BFBC",
"2 c #EAC284",
"3 c #FDD69F",
"4 c #FFECB5",
"5 c #CECCC7",
"6 c #DDD9D4",
"7 c #E6E6E6",
"8 c white",
/* pixels */
"8878877877887887787788788778778878877877887887787788788778778878877877887887787788788778778878877877",
"8878877877887887787788788778778878877877887887787788788778778878877877887887787788788778778878877877",
"7787788788778778878877877887887787788788778778878877877887887787788788778778878877877887887787788788",
"7787788788778778878877877887887787788788778778878877877887887787788788778778878877877887887787788788",
"7787788788778778878877877887887787788788778778878877877887887787788788778778878877877887887787788788",
"8878877877887887787788788778778878877877887887787788788778778878877877887887787788788778778878877877",
"8878877877887887787788788778778878877877887887787788788778778878877877887887787788788778778878877877",
"8878877877887887787788788778778878877877887887787788788778778878877877887887787788788778778878877877",
"7787788788778778878877877887887787788788778778878877877887887787788788778778878877877887887787788788",
"7787788788778778878877877887887787788788778778878877877887887787788788778778878877877887887787788788",
"7787788788778778878877877887887787788788778778878877877887887787788788778778878877877887887787788788",
"8878877877887887787788788778778878877877887887787788788778778878877877887887787788788778778878877877",
"8878877877887887787788788778778878877877887887787788788778778878877877887887787788788778778878877877",
"8878877877887887787788788778778878877877887887787788788778778878877877887887787788788778778878877877",
"7787788788778778878877877887887787788788778778878877877887887787788788778778878877877887887787788788",
"7787788788778778878877877887887787788788778778878877877888887787788788778778878877877887887787788788",
"7787788788778778878877877887887787788788778778878877877.=>887787788788778778878877877887887787788788",
"8878877877887887787788788778778878877877887887787788788>15778878877877887887787788788778778878877877",
"8878877877887887787788788778778878877877887887787788788>17778878877877887887787788788778778878877877",
"778778878877877887887787788788778778878877877887887787;515887787788788778778878877877887887787788788",
"7787788788778778878877877887887787788788778778878877877111$87787788788778778878877887887887787788788",
"7787788788778778878877877887887787788788778778878877877511=877877887887787788788-5677887887787788788",
"8878877877887887787788788778778878877877887887787788788111$788788778778878868&+788788788778878877877",
"8878877877887887787788788778778878877877887887787788788+>15788788778778878=7787788# .778778878877877",
"8878877877887887787788788778778878877877887887787788788X1566#878877877884687787....X+X 8778878877877",
"7787788788778778878877877887887787788788778778878877877811555>>7;6668867877887 OO..o.-+ 887787788788",
"77877887887787788788778778878877877887887787788788778771>115>+177887887787788 ..XX+OXX.$ 87787788788",
"7787788788778778878877877887887787788788778778878877815>>>1>61>7788788778778$..XO@#oOOO.  7787788788",
"8878877877887887787788788778778878877877887887787788>-:61>:>>:>7877877887887 .XXX@&@%OXX..8878877877",
"88788778778878877877887887787788788778778878877877885>>1151>1.>;87787788788..XOO%@+OXXOXX .878877877",
"8878877877887887787788788778778878877877887887787788=:>:1>1>5:6887787788788 .XX+O&&o&@+...X878877877",
"77877887887787788788778778878877877887887787788788778>  >1>>=8877887887787X.XO+O##+*%&@X.O. 87788788",
"77877887887787788788778778878877877887887787788788778:::1$$$$7877887887787 .O+#O=X...+@OOO..87788788",
"778778878877877887887787788788778778878877877887887787588#-O=7877887887787.X+#++.oXoo.O#+@X.87788788",
"887887787788788778778878877877887887787788788778778878877=Xo+8788778778878.X+##.o&@*oo.+oXX.-8877877",
"887887787788788778778878877877887887787788788778778878877$$%O8788778778878.O+OO@o,%,&,o XOX. 8877877",
"8878877877887887787788788778778878877877887887787788788778@@$878877877887#.#+#o*2222,**oOOX. 8877877",
"7787788788778778878877877887887787788788778778878877877887=o#.87788788778.OO@O%2,2222,,*.=...7788788",
"7787788788778778878877877887887787788788778778878877877887$;$>87788788778 .O-o%,33+2*2%%o+XX.7788788",
"7787788788778778878877877887887787788788778778878877877887$$-#877887+$78;.o+-o,223X3222o.X+X.7788788",
"8878877877887887787788788778778878877877887887787788788778;-=#78887+$#.O.XXO$o223233323@&X+X.8877877",
"8878877877887887787788788778778878877877887887787788788778$#--78@#++&@OoX@O@+o3%33@X3322*X@XX8877877",
"88788778778878877877887887787788788778778878877877887887788-#+5+$$.#$% @XOXo+@3*44O.3332%.$o.8877877",
"77877887887787788788778778878877877887887787788788778778878O+=$#=X%o@o OOOo@+@2444443232*X=o 7788788",
"77877887887787788788778778878877877887887787788788778.#887 +-=.XOO%&O@@%o@Xo++%444%3333,*X-O87788788",
"778778878877877887887787788788778778878877877887888+#$;O+..O+.OXOOO@%+&>@@.+#+*4***433,,,X+.87788788",
"8878877877887887787788788778778878877877887887788OO==;1O=$OOX.XXX+#%$=#+@@.o=#&4442434*3@XOX78877877",
"8878877877887887787788788778778878877877887887;.##$:>-6X:=+X.XOOO+=##$@7#XoO-+%22444@44,.#O 78877877",
"88788778778878877877887887787788788778778878$.#=+==;;>-O>$X;.X+X:o$-@$#+>...$&%-*444o4%%X;o 78877877",
"778778878877877887887787788788778778878877+XO#$&%=>5155O5$@#OO1+#$#O$#:.. 8.o>=%@324@,@.$$X787788788",
"7787788788778778878877877887887787788787XO+=6$=&$;;651111=@+O@#:+$O$;X. 8778O=#=O&@@,-.X=X7787788788",
"7787788788778778878877877887887787788:O+#$$%;;-%$:>516775+:$OX$##@@.o 778778 @;=#@O##.X#X 7787788788",
"88788778778878877877887887787788788+O+$$==--;$@%$:-167166#$$XX#$;.  878878877 @>$#;$++=-.88878877877",
"887887787788788778778878877877888.+#$$---:;--&-*4>;=7>715;#X+X;.o 887788788778.#;:=$=->X8=8878877877",
"8878877877887887787788788778778X+#==-:>;;-;&-:;&%1;&56:7O1#.1.. $77877887887788 o>:15%.8888878877877",
"77877887887787788788778778878O+$$=;:;;;--;;::>%&&::=6:;5X;$O. $+-8878877877887888 X  .8+887787788788",
"778778878877877887887787785O+$==;:-::;;:;>>>;&;-%;;-1$5:;-XX7:$X=8878877877887887;+=O887887787788788",
"778778878877877887887787=O#$=-;>-;;>>:::>:>::6&%o;;=-;>&>++87;--=88788778778878.17877887887787788788",
"88788778778878877877887++$=;1-;::;;>>>>1;>>15XXoo#==::;;:O7786--=878778878877$8788788778778878877877",
"88788778778878877877887=---;;;;;>>>>11;>>6>@,<+%@@-=+:-=#X7788---X7877887887#87788788778778878877877",
"88788778778878877877888;=;:-;;:::>>11>15-%,<<<%#=,==#-#O.87788--:-7877887888787788788778778878877877",
"7787788788778778878877.;::;:5>::11:175$*,<<<4<=-@%$#+OX8878877&=$=8788778777878877877887887787788788",
"778778878877877887887OO:-::15::>65-$#,,<<<33<-1$#XXX>778878877;@#o87887787:8878877877887887787788788",
"778778878877877887887&+%=>1::1:>%:O,<<<<3<<-$==+X 878778878877#X$+8788778778878877877887887787788788",
"887887787788788778778:.,=>1>;:>>@<<3<<3<<56;=$..878878877877888#O#6877887887787788788778778878877877",
"8878877877887887787786$$=::;;-&<363<43<:-=$#X.78778878877877887$$-O877887;87787788788778778878877877",
"8878877877887887787787,+-:11+*<43443,8-=$+X.8778778878877877887=;O&877887887787788788778778878877877",
"77877887887787788785:6,+1>:,o34443&6-=$OX-877887887787788788778$;O=788778778878877877887887787788788",
"7787788788778778878661>+:=->&<<4&5==#OX877877887887787788788778;-=-78877#778878877877887887787788788",
"778778878877877885+=7#1#>#;;%*>7-##X.888778778878877877887887781;=-78:178778878877877887887787788788",
"887887787788788868778>:O=o@&:;=##X 87877887887787788788778778878==;:1;:87887787788788778778878877877",
"8878877877887787787788-+X+#=$$+X 88778778878877877887887787788781>::>>>>7887787788788778778878877877",
"88788778776:7887787788.8O$=$+XO8788778778878877877887887787788>:>>1>>:1,7887787788788778778878877877",
"778778871>778778878877878#OX887787788788778778878877877887887;;#:1>::==;8778878877877887887787788788",
"778778-788778778878877877.87887787788788778778878877877887887:-:1::>>::88778878877877887887787788788",
"7787#88788778778878877877887887787788788778778878877877887887;;:1::>>>178778878877877887887787788788",
"8878877877887887787788788778778878877877887887787788788778778-: >>:11$887887787788788778778878877877",
"88788778778878877877887887787788788778778878877877887887787781&>>:>>17887887787788788778778878877877",
"88788778778878877877887887787788788778778878877877887887787788;88;>>:7887887787788788778778878877877",
"77877887887787788788778778878877877887887787788788778778878877877%:118778778878877877887887787788788",
"77877887887787788788778778878877877887887787788788778778878877877$>:58778778878877877887887787788788",
"778778878877877887887787788788778778878877877887887787788788778778:>:8778778878877877887887787788788",
"887887787788788778778878877877887887787788788778778878877877887887:::6887887787788788778778878877877",
"8878877877887887787788788778778878877877887887787788788778778878871;;O887887787788788778778878877877",
"8878877877887887787788788778778878877877887887787788788778778878877=77887887787788788778778878877877",
"7787788788778778878877877887887787788788778778878877877887887787788788778778878877877887887787788788",
"7787788788778778878877877887887787788788778778878877877887887787788788778778878877877887887787788788",
"7787788788778778878877877887887787788788778778878877877887887787788788778778878877877887887787788788",
"8878877877887887787788788778778878877877887887787788788778778878877877887887787788788778778878877877",
"8878877877887887787788788778778878877877887887787788788778778878877877887887787788788778778878877877",
"8878877877887887787788788778778878877877887887787788788778778878877877887887787788788778778878877877",
"7787788788778778878877877887887787788788778778878877877887887787788788778778878877877887887787788788",
"7787788788778778878877877887887787788788778778878877877887887787788788778778878877877887887787788788",
"7787788788778778878877877887887787788788778778878877877887887787788788778778878877877887887787788788",
"8878877877887887787788788778778878877877887887787788788778778878877877887887787788788778778878877877",
"8878877877887887787788788778778878877877887887787788788778778878877877887887787788788778778878877877",
"8878877877887887787788788778778878877877887887787788788778778878877877887887787788788778778878877877",
"7787788788778778878877877887887787788788778778878877877887887787788788778778878877877887887787788788",
"7787788788778778878877877887887787788788778778878877877887887787788788778778878877877887887787788788",
"7787788788778778878877877887887787788788778778878877877887887787788788778778878877877887887787788788"
};
